<svg xmlns="http://www.w3.org/2000/svg" version="1.1" x="0px" y="0px" width="422.927px" height="50px" viewBox="4.329 0.511 422.927 50" enable-background="new 4.329 0.511 422.927 50" xml:space="preserve" fill="#ffffff">
  <path d="M200.666 16.117c-1.171 2.073-2.348 4.351-3.244 6.423h-0.069c-0.898-2.072-2.072-4.35-3.245-6.423l-8.22-14.777h-9.254v48.341h8.08V20.4c0-2.832-0.137-5.317-0.552-7.596l0.138-0.069c0.691 2.141 1.728 4.28 3.107 6.766l6.767 12.017h6.423l6.767-12.017c1.381-2.486 2.417-4.626 3.108-6.766l0.137 0.069c-0.414 2.279-0.551 4.765-0.551 7.596v29.282h8.081V1.34h-9.255L200.666 16.117zM417.995 1.34l-8.219 14.777c-1.174 2.073-2.348 4.351-3.246 6.423h-0.068c-0.898-2.072-2.072-4.35-3.246-6.423L394.999 1.34h-9.254v48.341h8.078V20.4c0-2.832-0.137-5.317-0.553-7.596l0.139-0.069c0.691 2.141 1.727 4.28 3.107 6.766l6.77 12.017h6.422l6.77-12.017c1.379-2.486 2.414-4.626 3.104-6.766l0.139 0.069c-0.414 2.279-0.551 4.765-0.551 7.596v29.282h8.078V1.34H417.995zM368.757 32.761c0 7.044-3.316 9.737-9.254 9.737 -5.941 0-9.256-2.693-9.256-9.737V1.34h-8.148v31.834c0 12.568 6.768 17.335 17.404 17.335 10.633 0 17.402-4.767 17.402-17.335V1.34h-8.148V32.761L368.757 32.761zM253.636 32.761c0 7.044-3.314 9.737-9.254 9.737 -5.941 0-9.256-2.693-9.256-9.737V1.34h-8.148v31.834c0 12.568 6.768 17.335 17.404 17.335 10.633 0 17.4-4.767 17.4-17.335V1.34h-8.146V32.761L253.636 32.761z"/>
  <polygon points="104.057 24.474 122.426 1.616 122.426 1.34 112.274 1.34 96.667 21.297 96.667 1.34 88.519 1.34 88.519 49.681 96.667 49.681 96.667 27.995 112.964 49.681 123.117 49.681 123.117 49.405 104.057 24.613 "/>
  <polygon points="306.741 49.681 334.915 49.681 334.915 41.947 314.89 41.947 314.89 28.48 334.157 28.48 334.157 20.745 314.89 20.745 314.89 9.074 334.915 9.074 334.915 1.34 306.741 1.34 "/>
  <path d="M145.697 22.333l-3.938-1.381c-3.935-1.38-6.905-2.762-6.905-6.491 0-4.627 4.282-6.078 8.77-6.078 4.697 0 8.702 1.588 11.326 3.246h0.277V3.412c-2.28-1.521-6.561-2.9-11.533-2.9 -9.254 0-17.263 4.696-17.263 14.364 0 7.666 4.349 11.119 10.909 13.398l3.938 1.381c3.936 1.382 6.905 2.763 6.905 6.492 0 4.627-4.283 6.491-8.978 6.491 -4.833 0-9.737-1.933-12.636-3.729h-0.278v8.288c2.417 1.656 7.39 3.314 12.845 3.314 10.014 0 17.474-5.456 17.474-14.779C156.609 28.064 152.257 24.611 145.697 22.333zM287.958 22.333l-3.938-1.381c-3.936-1.38-6.906-2.762-6.906-6.491 0-4.627 4.281-6.078 8.771-6.078 4.693 0 8.701 1.588 11.324 3.246h0.277V3.412c-2.279-1.521-6.562-2.9-11.529-2.9 -9.258 0-17.268 4.696-17.268 14.364 0 7.666 4.35 11.119 10.91 13.398l3.936 1.381c3.939 1.382 6.906 2.763 6.906 6.492 0 4.627-4.281 6.491-8.977 6.491 -4.836 0-9.738-1.933-12.639-3.729h-0.275v8.288c2.416 1.656 7.391 3.314 12.844 3.314 10.014 0 17.473-5.456 17.473-14.779C298.868 28.064 294.519 24.611 287.958 22.333zM69.319 33.589c0 6.423-3.729 8.91-9.531 8.91 -4.902 0-9.252-1.587-13.395-3.729h-0.277v8.287c3.522 1.935 8.288 3.454 13.951 3.454 11.532 0 17.402-6.284 17.402-16.367V1.34h-8.15V33.589z"/>
  <rect x="46.116" y="1.34" width="8.149" height="30.041"/>
  <path d="M36.242 16.6c0-11.532-7.321-15.26-17.955-15.26H4.337v48.341h8.147V31.725h5.249c2.002 0 3.522-0.067 4.696-0.345l7.183 18.301h8.769v-0.276l-8.494-20.372C33.756 26.891 36.242 23.023 36.242 16.6zM17.182 24.198h-4.698V9.005h4.972c6.077 0 10.358 1.519 10.358 7.595C27.815 22.68 23.533 24.198 17.182 24.198z"/>
</svg>
